HIERARCHY
ROOT Hips
{
	OFFSET 0.000000 0.000000 0.000000
	CHANNELS 6 Xposition Yposition Zposition Zrotation Yrotation Xrotation 
	JOINT LHipJoint
	{
		OFFSET 0.000000 0.000000 0.000000
		CHANNELS 3 Zrotation Yrotation Xrotation
		JOINT LeftUpLeg
		{
			OFFSET 1.363060 -1.794630 0.839290
			CHANNELS 3 Zrotation Yrotation Xrotation
			JOINT LeftLeg
			{
				OFFSET 2.448110 -6.726130 0.000000
				CHANNELS 3 Zrotation Yrotation Xrotation
				JOINT LeftFoot
				{
					OFFSET 2.562200 -7.039590 0.000000
					CHANNELS 3 Zrotation Yrotation Xrotation
					JOINT LeftToeBase
					{
						OFFSET 0.157640 -0.433110 2.322550
						CHANNELS 3 Zrotation Yrotation Xrotation
						End Site
						{
							OFFSET 0.000000 0.000000 0.000000
						}
					}
				}
			}
		}
	}
	JOINT RHipJoint
	{
		OFFSET 0.000000 0.000000 0.000000
		CHANNELS 3 Zrotation Yrotation Xrotation
		JOINT RightUpLeg
		{
			OFFSET -1.305520 -1.794630 0.839290
			CHANNELS 3 Zrotation Yrotation Xrotation
			JOINT RightLeg
			{
				OFFSET -2.542530 -6.985550 0.000000
				CHANNELS 3 Zrotation Yrotation Xrotation
				JOINT RightFoot
				{
					OFFSET -2.568260 -7.056230 0.000000
					CHANNELS 3 Zrotation Yrotation Xrotation
					JOINT RightToeBase
					{
						OFFSET -0.164730 -0.452590 2.363150
						CHANNELS 3 Zrotation Yrotation Xrotation
						End Site
						{
							OFFSET 0.000000 0.000000 0.000000
						}
					}
				}
			}
		}
	}
	JOINT LowerBack
	{
		OFFSET 0.000000 0.000000 0.000000
		CHANNELS 3 Zrotation Yrotation Xrotation
		JOINT Spine
		{
			OFFSET 0.028270 2.035590 -0.193380
			CHANNELS 3 Zrotation Yrotation Xrotation
			JOINT Spine1
			{
				OFFSET 0.056720 2.048850 -0.042750
				CHANNELS 3 Zrotation Yrotation Xrotation
				JOINT Neck
				{
					OFFSET 0.000000 0.000000 0.000000
					CHANNELS 3 Zrotation Yrotation Xrotation
					JOINT Neck1
					{
						OFFSET -0.054170 1.746240 0.172020
						CHANNELS 3 Zrotation Yrotation Xrotation
						JOINT Head
						{
							OFFSET 0.104070 1.761360 -0.123970
							CHANNELS 3 Zrotation Yrotation Xrotation
							End Site
							{
								OFFSET 0.000000 0.000000 0.000000
							}
						}
					}
				}
				JOINT LeftShoulder
				{
					OFFSET 0.000000 0.000000 0.000000
					CHANNELS 3 Zrotation Yrotation Xrotation
					JOINT LeftArm
					{
						OFFSET 3.362410 1.200890 -0.311210
						CHANNELS 3 Zrotation Yrotation Xrotation
						JOINT LeftForeArm
						{
							OFFSET 4.983000 -0.000000 -0.000000
							CHANNELS 3 Zrotation Yrotation Xrotation
							JOINT LeftHand
							{
								OFFSET 3.483560 -0.000000 -0.000000
								CHANNELS 3 Zrotation Yrotation Xrotation
								JOINT LeftFingerBase
								{
									OFFSET 0.000000 0.000000 0.000000
									CHANNELS 3 Zrotation Yrotation Xrotation
									JOINT LeftHandIndex1
									{
										OFFSET 0.715260 -0.000000 -0.000000
										CHANNELS 3 Zrotation Yrotation Xrotation
										End Site
										{
											OFFSET 0.000000 0.000000 0.000000
										}
									}
								}
								JOINT LThumb
								{
									OFFSET 0.000000 0.000000 0.000000
									CHANNELS 3 Zrotation Yrotation Xrotation
									End Site
									{
										OFFSET 0.000000 0.000000 0.000000
									}
								}
							}
						}
					}
				}
				JOINT RightShoulder
				{
					OFFSET 0.000000 0.000000 0.000000
					CHANNELS 3 Zrotation Yrotation Xrotation
					JOINT RightArm
					{
						OFFSET -3.136600 1.374050 -0.404650
						CHANNELS 3 Zrotation Yrotation Xrotation
						JOINT RightForeArm
						{
							OFFSET -5.241900 -0.000000 -0.000000
							CHANNELS 3 Zrotation Yrotation Xrotation
							JOINT RightHand
							{
								OFFSET -3.444170 -0.000000 -0.000000
								CHANNELS 3 Zrotation Yrotation Xrotation
								JOINT RightFingerBase
								{
									OFFSET 0.000000 0.000000 0.000000
									CHANNELS 3 Zrotation Yrotation Xrotation
									JOINT RightHandIndex1
									{
										OFFSET -0.622530 -0.000000 -0.000000
										CHANNELS 3 Zrotation Yrotation Xrotation
										End Site
										{
											OFFSET 0.000000 0.000000 0.000000
										}
									}
								}
								JOINT RThumb
								{
									OFFSET 0.000000 0.000000 0.000000
									CHANNELS 3 Zrotation Yrotation Xrotation
									End Site
									{
										OFFSET 0.000000 0.000000 0.000000
									}
								}
							}
						}
					}
				}
			}
		}
	}
}
MOTION
Frames: 10
Frame Time: 0.008333
12.304851 18.527962 -45.259512 -3.419989 -35.738411 7.880923 -0.943394 2.928900 2.891331 -14.937386 -11.119540 -6.068979 -2.253774 8.140854 23.593126 -5.334528 15.806504 -3.521732 1.970900 -8.805100 -25.187500 -3.462090 -2.559837 -0.083844 31.466559 -6.584150 -18.934285 -0.365147 -12.485353 36.456097 8.070760 -30.764479 -25.258439 -3.339200 -11.224900 33.042200 2.996481 -0.105753 2.479550 8.364686 0.304502 -0.001296 -3.160014 -0.359015 -9.757803 4.232698 8.457491 -13.211813 0.719690 11.422972 7.727233 -2.787300 5.707300 3.815100 -2.351238 -10.198046 1.514736 -89.216317 9.576903 38.921515 27.536767 -27.683941 -8.630957 1.441762 0.859163 16.171839 8.724368 -30.606584 -4.040500 -7.125000 0.000000 0.000000 -13.590100 -1.406900 14.324900 -0.116618 11.395630 3.111496 83.179310 -12.868848 22.711412 -20.798926 23.691685 -5.921509 1.306771 0.278118 17.170506 -8.740310 -53.650563 8.045600 7.125000 0.000000 0.000000 71.629000 -75.213800 -56.587800 
12.340046 18.525481 -45.283369 -3.087793 -34.693615 7.574138 -0.991383 2.976992 2.903349 -15.092176 -11.947235 -5.595780 -2.412416 7.893497 22.887377 -5.374172 15.886543 -3.420487 1.862700 -8.574000 -24.471600 -3.448962 -2.547534 -0.122242 31.205002 -7.841350 -20.171801 -0.731362 -12.864520 37.571215 8.139849 -30.587163 -24.355939 -3.621600 -11.639100 34.467100 3.044982 -0.140138 2.608482 8.281362 0.252404 0.157567 -3.178163 -0.374852 -9.796146 3.862486 8.383428 -13.340748 0.850134 11.324324 7.605001 -2.708700 5.645000 3.755800 -2.332567 -10.220843 1.522742 -89.101884 9.758154 38.626434 27.502005 -27.610284 -8.565860 1.394757 0.877516 16.034527 9.735572 -29.929201 -4.522300 -7.125000 0.000000 0.000000 -12.961000 -0.888400 13.508700 -0.109268 11.357577 3.107097 83.006859 -12.887703 22.868599 -20.966852 23.880652 -5.980195 1.305132 0.273975 16.991034 -8.984812 -53.367484 8.216700 7.125000 0.000000 0.000000 70.434900 -75.235100 -55.497600 
12.373587 18.521466 -45.288447 -2.729130 -33.881845 7.230692 -1.048991 3.028431 2.927186 -15.406067 -12.717936 -5.040043 -2.570625 7.657504 22.234991 -5.479250 16.128495 -3.680374 1.754800 -8.335400 -23.737600 -3.452423 -2.533906 -0.146421 30.774655 -8.524108 -21.105690 -1.064737 -13.226984 38.716030 7.925507 -29.883267 -23.986036 -4.177800 -12.393300 37.137700 3.211366 -0.124053 2.514019 8.089764 0.253492 0.405586 -3.295298 -0.368268 -9.677317 3.553850 8.326319 -13.298781 0.919437 11.233751 7.387187 -2.667700 5.583900 3.654800 -2.298589 -10.258272 1.527943 -88.951220 10.070674 38.549788 27.488139 -27.519227 -8.479957 1.287959 0.911788 16.720901 12.238232 -28.216642 -5.630800 -7.125000 0.000000 0.000000 -11.361000 0.414500 11.507600 -0.100728 11.300989 3.099664 82.789631 -13.000061 23.301803 -21.263754 24.221022 -6.114025 1.295477 0.281032 16.593090 -9.333691 -53.537046 8.512500 7.125000 0.000000 0.000000 70.899200 -75.401900 -56.115600 
12.409491 18.518986 -45.322343 -2.361786 -32.730747 7.062173 -1.085453 3.031146 2.888151 -15.612404 -13.471822 -4.735789 -2.715706 7.428091 21.569091 -5.573977 16.338362 -3.623578 1.778400 -8.388300 -23.899900 -3.439468 -2.480768 -0.187512 30.393451 -8.880758 -22.177636 -1.373256 -13.621868 39.883699 7.697476 -29.286983 -24.010744 -4.745000 -13.090700 39.708900 2.999415 -0.178535 2.637057 8.251772 0.173253 0.381978 -3.126865 -0.388708 -9.748972 3.085649 8.222804 -13.240077 0.885105 11.112050 7.177352 -2.639300 5.500600 3.546300 -2.294752 -10.285728 1.529016 -89.037271 10.325941 38.436695 27.814814 -27.759017 -8.555685 1.221997 0.822508 16.601627 11.747972 -25.201944 -4.870300 -7.125000 0.000000 0.000000 -11.460900 3.573800 10.949200 -0.110658 11.256913 3.117482 82.379750 -13.042210 23.520138 -21.494902 24.490391 -6.214785 1.289232 0.279647 16.342711 -9.596855 -53.536259 8.723800 7.125000 0.000000 0.000000 70.750500 -75.496300 -56.081800 
12.443268 18.512490 -45.361317 -1.989530 -31.669235 6.757374 -1.067497 3.000755 2.943807 -15.726789 -12.598638 -5.038798 -2.782057 7.221846 21.016113 -5.214036 15.527100 -2.494247 2.001200 -8.868600 -25.385200 -3.454406 -2.434138 -0.252522 30.011991 -9.237483 -23.040995 -1.733423 -14.005020 41.074741 7.699749 -29.148505 -23.598345 -5.049200 -13.439000 41.034900 2.749274 -0.210873 2.898690 8.389026 0.120574 0.490314 -2.950743 -0.383387 -9.880885 2.639189 8.044072 -13.335326 0.806375 10.913812 7.094355 -2.619900 5.382700 3.497800 -2.301728 -10.285955 1.534541 -89.061306 10.390961 36.893208 27.366018 -27.389627 -8.381589 1.327368 0.900482 17.261567 11.876580 -28.428992 -5.469100 -7.125000 0.000000 0.000000 -11.600100 0.249400 11.794100 -0.118783 11.230547 3.128364 81.990226 -13.014208 23.718304 -21.756701 24.803696 -6.338356 1.278663 0.285296 16.037165 -9.777848 -53.755990 8.888400 7.125000 0.000000 0.000000 71.500500 -75.609900 -56.909000 
12.480707 18.486153 -45.380686 -1.652152 -30.806799 6.024459 -1.084608 3.121556 3.056726 -16.120555 -12.964065 -4.291673 -2.897260 7.000298 20.482435 -5.148081 15.390116 -2.631281 1.935700 -8.730900 -24.957100 -3.502202 -2.479751 -0.276748 29.508988 -9.699352 -23.419857 -2.175482 -14.352731 42.350002 7.762816 -29.000402 -22.623080 -5.324400 -13.740000 42.206000 2.915207 -0.131363 3.287772 8.016567 0.228530 0.902788 -3.095023 -0.319834 -10.024001 2.785750 7.742195 -13.243336 0.572275 10.491506 6.928939 -2.749400 5.161200 3.419300 -2.249921 -10.269257 1.536246 -88.559694 10.566931 36.521237 27.209440 -27.229943 -8.269275 1.364827 0.882311 17.101891 11.076897 -28.461176 -5.041100 -7.125000 0.000000 0.000000 -12.086700 0.344500 12.291000 -0.107508 11.195765 3.102606 82.046628 -13.144166 23.708230 -22.121592 25.233120 -6.504123 1.262495 0.300383 15.610211 -9.908969 -53.961431 9.006400 7.125000 0.000000 0.000000 72.258500 -75.697800 -57.718600 
12.517556 18.474225 -45.418243 -1.331776 -29.462563 5.820412 -1.184235 3.222979 2.977695 -16.425766 -15.122696 -3.243385 -3.095851 6.748010 19.737007 -5.565969 16.340741 -3.553748 1.799700 -8.435800 -24.045800 -3.559402 -2.485848 -0.340811 29.163595 -10.082020 -24.327948 -2.632749 -14.754843 43.566534 8.036584 -29.214526 -20.905467 -5.496900 -13.922500 42.927700 3.304297 -0.028279 3.540360 7.158596 0.392475 0.684612 -3.412291 -0.276683 -10.189818 3.570230 7.300392 -12.658763 0.241419 9.785568 6.566052 -3.029500 4.809100 3.214300 -2.163350 -10.243500 1.590492 -87.482886 10.965063 36.938835 27.125587 -27.131004 -8.183972 1.381355 0.858209 16.752690 10.356923 -28.019692 -4.592000 -7.125000 0.000000 0.000000 -12.493700 0.904900 12.599700 -0.054558 11.131247 3.068566 82.756458 -13.567971 23.073191 -22.598650 25.786041 -6.708181 1.240558 0.319824 15.301248 -9.787845 -53.975704 8.891000 7.125000 0.000000 0.000000 72.413100 -75.649500 -57.810500 
12.549916 18.461233 -45.444107 -1.079610 -28.353124 5.620684 -1.172302 3.243249 3.007961 -16.613444 -15.113192 -3.147298 -3.189842 6.540252 19.163908 -5.579673 16.379507 -3.155046 2.218100 -9.306300 -26.758300 -3.588217 -2.485225 -0.394886 28.711302 -10.206038 -25.035981 -3.161660 -15.156450 44.793987 8.455105 -29.665506 -18.151915 -5.332500 -13.748700 42.240100 3.244554 -0.152107 3.521734 7.373894 0.206268 0.923589 -3.311523 -0.342309 -10.120947 2.976801 7.159173 -12.699823 0.199939 9.613783 6.308169 -2.984000 4.694400 3.102800 -2.161808 -10.291347 1.580260 -87.597272 10.991274 35.868282 27.040220 -27.027005 -8.102090 1.385357 0.853823 16.935757 10.412334 -27.778192 -4.584600 -7.125000 0.000000 0.000000 -12.450600 1.134100 12.502500 -0.072537 11.087468 3.082172 82.104536 -13.531071 23.667796 -23.082109 26.330871 -6.937939 1.223925 0.330410 14.787045 -9.492791 -54.109414 8.652300 7.125000 0.000000 0.000000 73.042700 -75.562200 -58.307100 
12.580977 18.433125 -45.476232 -0.807860 -27.721361 5.304273 -1.178087 3.283932 3.047443 -16.916385 -15.335320 -2.781426 -3.289329 6.349963 18.683121 -5.549258 16.319019 -3.341895 2.216200 -9.302600 -26.746700 -3.640630 -2.484873 -0.440858 28.106549 -9.747834 -25.317421 -3.607054 -15.511851 45.985331 8.530459 -29.567441 -16.449523 -5.167300 -13.569800 41.540700 3.139081 -0.034609 3.796683 7.347408 0.360130 1.044389 -3.268025 -0.248714 -10.250309 2.797975 6.944074 -12.582963 0.349615 9.274448 5.998088 -3.272600 4.530200 3.260100 -2.144840 -10.301988 1.589575 -87.437680 11.246856 35.053542 27.026353 -27.013949 -8.072553 1.405271 0.839884 17.077484 10.058293 -27.785744 -4.398900 -7.125000 0.000000 0.000000 -12.667100 1.180100 12.720400 -0.085741 11.031764 3.088075 81.787624 -13.692247 23.916777 -23.572646 26.883915 -7.172450 1.205782 0.338872 14.362628 -9.534714 -54.243733 8.688300 7.125000 0.000000 0.000000 73.540400 -75.597700 -58.817800 
12.618180 18.394032 -45.514497 -0.626824 -27.074543 5.089590 -1.200332 3.321843 3.028892 -17.163928 -16.188840 -2.273386 -3.393960 6.184864 18.278161 -5.435090 16.054690 -3.911353 1.784700 -8.402300 -23.943000 -3.685690 -2.464602 -0.473902 27.529822 -9.085332 -25.543149 -3.946223 -15.826547 47.095675 8.279642 -28.815408 -15.875226 -5.084300 -13.478200 41.185800 3.176277 0.071295 4.215887 7.299411 0.527605 0.998211 -3.303303 -0.170306 -10.494851 2.604280 6.710205 -12.292794 0.283583 8.939731 5.834502 -3.299100 4.355800 3.109800 -2.116961 -10.294505 1.606633 -87.209338 11.569336 34.309842 27.103097 -27.097843 -8.088617 1.423696 0.811513 17.083001 9.422638 -27.611844 -4.045300 -7.125000 0.000000 0.000000 -13.041100 1.456700 13.050700 -0.090634 10.975274 3.097379 81.477378 -13.930836 24.243003 -24.066354 27.426030 -7.395333 1.191555 0.340080 13.910186 -9.716967 -53.931899 8.796500 7.125000 0.000000 0.000000 72.247200 -75.598300 -57.597200 
